<!-- <svg xmlns="http://www.w3.org/2000/svg" viewBox="0 0 841.9 595.3">
    <g fill="#61DAFB">
        <path d="M666.3 296.5c0-32.5-40.7-63.3-103.1-82.4 14.4-63.6 8-114.2-20.2-130.4-6.5-3.8-14.1-5.6-22.4-5.6v22.3c4.6 0 8.3.9 11.4 2.6 13.6 7.8 19.5 37.5 14.9 75.7-1.1 9.4-2.9 19.3-5.1 29.4-19.6-4.8-41-8.5-63.5-10.9-13.5-18.5-27.5-35.3-41.6-50 32.6-30.3 63.2-46.9 84-46.9V78c-27.5 0-63.5 19.6-99.9 53.6-36.4-33.8-72.4-53.2-99.9-53.2v22.3c20.7 0 51.4 16.5 84 46.6-14 14.7-28 31.4-41.3 49.9-22.6 2.4-44 6.1-63.6 11-2.3-10-4-19.7-5.2-29-4.7-38.2 1.1-67.9 14.6-75.8 3-1.8 6.9-2.6 11.5-2.6V78.5c-8.4 0-16 1.8-22.6 5.6-28.1 16.2-34.4 66.7-19.9 130.1-62.2 19.2-102.7 49.9-102.7 82.3 0 32.5 40.7 63.3 103.1 82.4-14.4 63.6-8 114.2 20.2 130.4 6.5 3.8 14.1 5.6 22.5 5.6 27.5 0 63.5-19.6 99.9-53.6 36.4 33.8 72.4 53.2 99.9 53.2 8.4 0 16-1.8 22.6-5.6 28.1-16.2 34.4-66.7 19.9-130.1 62-19.1 102.5-49.9 102.5-82.3zm-130.2-66.7c-3.7 12.9-8.3 26.2-13.5 39.5-4.1-8-8.4-16-13.1-24-4.6-8-9.5-15.8-14.4-23.4 14.2 2.1 27.9 4.7 41 7.9zm-45.8 106.5c-7.8 13.5-15.8 26.3-24.1 38.2-14.9 1.3-30 2-45.2 2-15.1 0-30.2-.7-45-1.9-8.3-11.9-16.4-24.6-24.2-38-7.6-13.1-14.5-26.4-20.8-39.8 6.2-13.4 13.2-26.8 20.7-39.9 7.8-13.5 15.8-26.3 24.1-38.2 14.9-1.3 30-2 45.2-2 15.1 0 30.2.7 45 1.9 8.3 11.9 16.4 24.6 24.2 38 7.6 13.1 14.5 26.4 20.8 39.8-6.3 13.4-13.2 26.8-20.7 39.9zm32.3-13c5.4 13.4 10 26.8 13.8 39.8-13.1 3.2-26.9 5.9-41.2 8 4.9-7.7 9.8-15.6 14.4-23.7 4.6-8 8.9-16.1 13-24.1zM421.2 430c-9.3-9.6-18.6-20.3-27.8-32 9 .4 18.2.7 27.5.7 9.4 0 18.7-.2 27.8-.7-9 11.7-18.3 22.4-27.5 32zm-74.4-58.9c-14.2-2.1-27.9-4.7-41-7.9 3.7-12.9 8.3-26.2 13.5-39.5 4.1 8 8.4 16 13.1 24 4.7 8 9.5 15.8 14.4 23.4zM420.7 163c9.3 9.6 18.6 20.3 27.8 32-9-.4-18.2-.7-27.5-.7-9.4 0-18.7.2-27.8.7 9-11.7 18.3-22.4 27.5-32zm-74 58.9c-4.9 7.7-9.8 15.6-14.4 23.7-4.6 8-8.9 16-13 24-5.4-13.4-10-26.8-13.8-39.8 13.1-3.1 26.9-5.8 41.2-7.9zm-90.5 125.2c-35.4-15.1-58.3-34.9-58.3-50.6 0-15.7 22.9-35.6 58.3-50.6 8.6-3.7 18-7 27.7-10.1 5.7 19.6 13.2 40 22.5 60.9-9.2 20.8-16.6 41.1-22.2 60.6-9.9-3.1-19.3-6.5-28-10.2zM310 490c-13.6-7.8-19.5-37.5-14.9-75.7 1.1-9.4 2.9-19.3 5.1-29.4 19.6 4.8 41 8.5 63.5 10.9 13.5 18.5 27.5 35.3 41.6 50-32.6 30.3-63.2 46.9-84 46.9-4.5-.1-8.3-1-11.3-2.7zm237.2-76.2c4.7 38.2-1.1 67.9-14.6 75.8-3 1.8-6.9 2.6-11.5 2.6-20.7 0-51.4-16.5-84-46.6 14-14.7 28-31.4 41.3-49.9 22.6-2.4 44-6.1 63.6-11 2.3 10.1 4.1 19.8 5.2 29.1zm38.5-66.7c-8.6 3.7-18 7-27.7 10.1-5.7-19.6-13.2-40-22.5-60.9 9.2-20.8 16.6-41.1 22.2-60.6 9.9 3.1 19.3 6.5 28.1 10.2 35.4 15.1 58.3 34.9 58.3 50.6-.1 15.7-23 35.6-58.4 50.6zM320.8 78.4z"/>
        <circle cx="420.9" cy="296.5" r="45.7"/>
        <path d="M520.5 78.1z"/>
    </g>
</svg> -->
<svg version="1.0" xmlns="http://www.w3.org/2000/svg"
 width="1200.000000pt" height="1200.000000pt" viewBox="0 0 1200.000000 1200.000000"
 preserveAspectRatio="xMidYMid meet">
<metadata>
Created by potrace 1.16, written by Peter Selinger 2001-2019
</metadata>
<g transform="translate(0.000000,1200.000000) scale(0.100000,-0.100000)"
fill="#000000" stroke="none">
<path d="M4735 10953 c-88 -52 -227 -135 -310 -183 -82 -48 -238 -139 -345
-202 -107 -63 -278 -164 -380 -223 -102 -60 -273 -160 -380 -223 -107 -63
-269 -158 -360 -212 -266 -155 -523 -306 -700 -410 -320 -187 -537 -315 -730
-428 -107 -63 -271 -160 -365 -214 -93 -55 -233 -137 -310 -182 -77 -46 -175
-103 -217 -127 -43 -24 -77 -46 -78 -49 0 -3 282 -167 628 -365 345 -197 641
-367 657 -376 l30 -17 85 50 c91 54 496 293 855 505 121 71 346 204 500 295
154 91 379 224 500 295 121 71 348 205 505 298 157 93 365 215 463 273 l177
104 73 -43 c39 -23 92 -54 117 -69 25 -15 79 -46 120 -70 41 -24 95 -55 120
-70 25 -15 79 -46 120 -70 41 -24 95 -55 120 -70 55 -32 139 -82 240 -140 41
-24 95 -55 120 -70 25 -15 79 -46 120 -70 41 -24 95 -55 120 -70 25 -15 79
-46 120 -70 41 -24 95 -55 120 -70 25 -15 79 -46 120 -70 41 -24 95 -55 120
-70 25 -15 79 -46 120 -70 41 -24 95 -55 120 -70 25 -15 79 -46 120 -70 41
-24 95 -55 120 -70 25 -15 79 -46 120 -70 41 -24 95 -55 120 -70 25 -15 79
-46 120 -70 41 -24 95 -55 120 -70 25 -15 79 -46 120 -70 41 -24 91 -53 110
-65 19 -12 50 -30 68 -39 l33 -17 644 386 c355 212 645 389 645 393 0 4 -73
48 -163 98 -89 51 -308 175 -487 276 -179 102 -482 274 -675 383 -192 109
-494 280 -670 380 -176 100 -477 271 -670 380 -192 109 -496 282 -675 383
-896 508 -1028 582 -1041 581 -8 0 -86 -43 -174 -96z"/>
<path d="M3681 8325 c-690 -387 -1258 -708 -1262 -712 -9 -9 2536 -1418 2561
-1418 24 0 2600 1429 2596 1440 -3 11 -2615 1394 -2631 1394 -5 0 -574 -317
-1264 -704z"/>
<path d="M10790 8474 c-377 -7 -757 -14 -845 -16 l-160 -3 49 -31 49 -32 -49
-27 c-27 -16 -101 -59 -164 -95 -63 -37 -203 -118 -310 -180 -107 -62 -305
-177 -440 -255 -135 -78 -333 -193 -440 -255 -107 -62 -226 -130 -264 -152
l-68 -40 43 -28 c24 -15 78 -46 119 -70 41 -24 95 -55 120 -70 25 -15 79 -46
120 -70 41 -24 95 -55 120 -70 25 -15 79 -46 120 -70 41 -24 95 -55 120 -70
25 -15 79 -46 120 -70 41 -24 95 -55 120 -70 25 -15 79 -46 120 -70 41 -24
100 -58 129 -77 48 -29 57 -31 75 -20 12 8 237 141 501 297 573 338 918 542
1116 660 132 78 147 85 165 72 53 -39 320 -209 324 -207 4 2 -15 1023 -19
1033 -1 1 -20 1 -43 1 -24 -1 -351 -8 -728 -15z"/>
<path d="M510 8238 c0 -95 4 -416 10 -713 5 -297 11 -684 14 -860 3 -176 8
-471 12 -655 3 -184 14 -848 24 -1474 15 -921 21 -1141 32 -1148 22 -14 456
-271 853 -506 130 -76 213 -125 435 -257 91 -54 215 -127 275 -163 138 -81
227 -134 435 -257 91 -54 215 -127 275 -163 238 -140 276 -162 435 -257 91
-54 215 -127 275 -163 140 -82 208 -122 545 -322 151 -90 311 -184 355 -210
44 -26 172 -102 285 -168 l205 -121 3 47 c2 27 -11 354 -28 728 -16 375 -30
704 -30 733 l0 52 -57 35 c-32 20 -249 146 -483 281 -469 270 -1072 619 -1450
838 -135 78 -427 247 -650 375 -223 129 -408 238 -412 244 -13 20 -17 208 -23
1026 -3 459 -8 1209 -12 1667 l-6 832 -626 358 c-344 196 -641 365 -658 376
l-33 19 0 -174z"/>
<path d="M6335 6829 c-715 -397 -1301 -722 -1303 -723 -3 -4 -22 -3200 -18
-3203 1 -2 583 324 1292 723 l1290 727 23 1594 c13 877 21 1596 19 1598 -2 2
-588 -320 -1303 -716z"/>
<path d="M2354 7208 c3 -178 11 -867 17 -1533 5 -665 11 -1225 12 -1243 2 -33
11 -38 1262 -780 l1260 -747 6 90 c4 49 10 770 13 1600 l7 1510 -1284 713
c-706 391 -1288 712 -1292 712 -4 0 -5 -145 -1 -322z"/>
<path d="M8092 5775 l3 -1538 160 -92 c88 -50 267 -153 398 -228 130 -76 343
-198 473 -273 130 -74 238 -133 241 -130 5 5 17 694 27 1581 4 270 8 558 11
640 2 83 6 298 7 479 l3 329 -105 62 c-58 34 -253 149 -435 255 -181 106 -424
248 -540 316 -115 67 -218 126 -228 129 -16 7 -17 -69 -15 -1530z"/>
<path d="M7965 4116 c-38 -24 -149 -89 -245 -146 -96 -56 -206 -122 -245 -145
-38 -23 -149 -88 -245 -145 -96 -57 -206 -122 -245 -145 -38 -23 -149 -89
-245 -145 -96 -57 -206 -122 -245 -145 -38 -23 -149 -89 -245 -145 -96 -57
-206 -122 -245 -145 -38 -23 -131 -78 -205 -122 -74 -44 -211 -125 -305 -180
-93 -56 -235 -139 -315 -186 -80 -48 -150 -90 -156 -94 -9 -6 -3 -198 22 -743
18 -404 33 -756 34 -782 0 -27 5 -48 10 -48 6 0 34 15 63 34 28 18 102 64 162
101 61 37 137 84 170 105 46 29 2375 1470 2905 1798 58 35 139 86 180 111 41
26 227 141 413 256 185 114 337 211 337 214 -1 3 -85 54 -188 112 -176 101
-594 341 -940 540 -85 49 -155 89 -155 88 -1 0 -33 -19 -72 -43z"/>
</g>
</svg>